<?xml version="1.0" encoding="utf-8"?>
<svg version="1.1" xmlns:xlink="http://www.w3.org/1999/xlink" width="32px" height="19px" xmlns="http://www.w3.org/2000/svg">
  <g transform="matrix(1 0 0 1 -605 -130 )">
    <path d="M 612.645799961539 130.5  C 612.645799961539 130.5  611.012029062834 130.985025735553  611.012029062834 130.985025735553  C 611.012029062834 130.985025735553  605.580550462257 139.5  605.580550462257 139.5  C 605.580550462257 139.5  611.012029062834 148.014974264447  611.012029062834 148.014974264447  C 611.012029062834 148.014974264447  612.645799961539 148.5  612.645799961539 148.5  C 612.645799961539 148.5  636.5 148.5  636.5 148.5  C 636.5 148.5  636.5 130.5  636.5 130.5  C 636.5 130.5  612.645799961539 130.5  612.645799961539 130.5  Z " fill-rule="nonzero" fill="#ffb008" stroke="none" />
    <path d="M 612.645799961539 130.5  C 612.645799961539 130.5  611.012029062834 130.985025735553  611.012029062834 130.985025735553  C 611.012029062834 130.985025735553  605.580550462257 139.5  605.580550462257 139.5  C 605.580550462257 139.5  611.012029062834 148.014974264447  611.012029062834 148.014974264447  C 611.012029062834 148.014974264447  612.645799961539 148.5  612.645799961539 148.5  C 612.645799961539 148.5  636.5 148.5  636.5 148.5  C 636.5 148.5  636.5 130.5  636.5 130.5  C 636.5 130.5  612.645799961539 130.5  612.645799961539 130.5  Z " stroke-width="1" stroke="#ff0000" fill="none" />
  </g>
</svg>