<?xml version="1.0" encoding="utf-8"?>
<svg version="1.1" xmlns:xlink="http://www.w3.org/1999/xlink" width="110px" height="98px" xmlns="http://www.w3.org/2000/svg">
  <g transform="matrix(1 0 0 1 -563 -475 )">
    <path d="M 563 475  L 673 475  L 673 573  L 563 573  L 563 475  " fill-rule="nonzero" fill="#cccccc" stroke="none" />
    <path d="M 570 482  L 666 482  L 666 566  L 570 566  L 570 482  " fill-rule="nonzero" fill="#ffffff" stroke="none" />
    <path d="M 627.55 504.4  C 623.434 504.4  620.2 501.166  620.2 497.05  C 620.2 492.934  623.434 489.7  627.55 489.7  C 631.666 489.7  634.9 492.934  634.9 497.05  C 634.9 501.166  631.666 504.4  627.55 504.4  " fill-rule="nonzero" fill="#cccccc" stroke="none" />
    <path d="M 573 564  L 573 520.55  L 595.75 500.8  L 627.6 521.770909090909  L 645.8 512.65  L 664 521.770909090909  L 664 564  L 573 564  " fill-rule="nonzero" fill="#169bd5" stroke="none" />
  </g>
</svg>