<?xml version="1.0" encoding="utf-8"?>
<svg version="1.1" xmlns:xlink="http://www.w3.org/1999/xlink" width="300px" height="170px" xmlns="http://www.w3.org/2000/svg">
  <g transform="matrix(1 0 0 1 -510 -157 )">
    <path d="M 510 157  L 810 157  L 810 327  L 510 327  L 510 157  " fill-rule="nonzero" fill="#cccccc" stroke="none" />
    <path d="M 522 169  L 798 169  L 798 315  L 522 315  L 522 169  " fill-rule="nonzero" fill="#ffffff" stroke="none" />
    <path d="M 678.75 208  C 671.61 208  666 202.39  666 195.25  C 666 188.11  671.61 182.5  678.75 182.5  C 685.89 182.5  691.5 188.11  691.5 195.25  C 691.5 202.39  685.89 208  678.75 208  " fill-rule="nonzero" fill="#cccccc" stroke="none" />
    <path d="M 527 311  L 527 235.65  L 593.75 201.4  L 687.2 264.42  L 740.6 221.95  L 794 264.42  L 794 311  L 527 311  " fill-rule="nonzero" fill="#169bd5" stroke="none" />
  </g>
</svg>